<?xml version="1.0" standalone="no"?>
<!DOCTYPE svg PUBLIC "-//W3C//DTD SVG 20010904//EN"
 "http://www.w3.org/TR/2001/REC-SVG-20010904/DTD/svg10.dtd">
<svg version="1.0" xmlns="http://www.w3.org/2000/svg"
 width="500.000000pt" height="500.000000pt" viewBox="0 0 500.000000 500.000000"
 preserveAspectRatio="xMidYMid meet">
<metadata>
Created by potrace 1.14, written by Peter Selinger 2001-2017
</metadata>
<g transform="translate(0.000000,500.000000) scale(0.100000,-0.100000)"
fill="#000000" stroke="none">
<path d="M1377 4826 c-23 -28 -60 -73 -82 -101 -22 -27 -45 -57 -52 -65 -7 -8
-107 -134 -223 -280 -116 -146 -216 -272 -223 -280 -6 -8 -55 -69 -107 -135
-52 -66 -99 -125 -105 -131 -5 -6 -21 -26 -35 -44 -14 -18 -30 -38 -35 -44 -6
-6 -62 -76 -125 -156 -63 -80 -117 -147 -120 -150 -3 -3 -30 -36 -60 -75 -75
-95 -74 -94 -114 -143 -19 -23 -33 -48 -31 -55 3 -7 6 -23 9 -37 2 -14 12 -56
21 -95 9 -38 19 -81 22 -95 2 -14 15 -70 29 -125 13 -55 27 -113 30 -130 3
-16 27 -127 55 -245 27 -118 52 -231 55 -250 3 -19 8 -39 12 -44 3 -5 6 -19 8
-30 1 -12 19 -91 39 -176 20 -85 39 -166 41 -180 3 -14 7 -33 10 -42 3 -10 8
-30 10 -45 3 -16 16 -73 29 -128 12 -55 35 -154 50 -220 15 -66 35 -151 44
-190 l16 -70 121 -60 c66 -33 181 -89 255 -124 74 -36 217 -105 319 -154 102
-49 230 -111 285 -137 55 -26 181 -87 280 -135 99 -48 225 -109 280 -135 55
-26 172 -82 259 -124 l159 -76 46 21 c25 11 53 25 61 30 8 5 24 13 35 18 30
13 275 131 410 197 66 32 122 59 125 60 3 0 66 30 140 66 267 129 432 208 437
208 3 0 17 9 31 19 15 10 31 19 35 19 8 0 26 9 337 160 107 52 218 105 246
118 53 24 60 36 80 139 2 11 26 119 54 240 50 215 109 475 115 505 2 8 15 65
29 125 35 149 116 504 122 535 3 13 14 63 25 110 12 47 23 96 25 110 3 14 20
90 39 170 19 80 37 160 40 178 5 32 -6 48 -175 260 -99 125 -191 241 -204 257
-21 26 -155 194 -189 235 -7 8 -37 47 -67 85 -30 38 -63 79 -72 90 -9 11 -76
94 -148 185 -72 91 -142 179 -155 195 -14 17 -94 118 -180 225 l-155 195
-1085 1 -1086 0 -42 -50z"/>
</g>
</svg>
